<svg width="132" height="119" viewBox="0 0 132 119" fill="none" xmlns="http://www.w3.org/2000/svg">
<g clip-path="url(#clip0_4453_742)">
<path d="M62.9058 72.922C63.9051 69.2777 62.5043 65.8385 59.7771 65.2404C57.0499 64.6423 54.029 67.1118 53.0297 70.7562C52.0304 74.4005 53.4312 77.8397 56.1584 78.4378C58.8856 79.0359 61.9065 76.5664 62.9058 72.922Z" fill="white" stroke="black" stroke-width="1.23441" stroke-miterlimit="10"/>
<path d="M56.7083 69.7848L51.7251 70.582C50.7818 70.7329 50.1084 71.5957 50.2211 72.509L50.2218 72.5145C50.3345 73.4278 51.1905 74.0459 52.1338 73.895L57.117 73.0979C58.0603 72.947 58.7337 72.0842 58.621 71.1708L58.6203 71.1654C58.5076 70.252 57.6516 69.6339 56.7083 69.7848Z" fill="#F79678"/>
<path d="M51.7903 74.6955C52.7896 71.0511 51.3888 67.6119 48.6616 67.0138C45.9344 66.4157 42.9135 68.8852 41.9142 72.5296C40.9149 76.174 42.3157 79.6131 45.0429 80.2112C47.7701 80.8093 50.791 78.3398 51.7903 74.6955Z" fill="white" stroke="black" stroke-width="1.23441" stroke-miterlimit="10"/>
<path d="M47.5179 70.6931C47.5179 70.6931 50.8998 72.9065 47.0918 77.0714" stroke="#17111B" stroke-width="1.23441" stroke-miterlimit="10" stroke-linecap="round"/>
<path d="M96.8156 61.1379C96.8156 61.1379 67.1459 64.7364 58.508 61.858C42.9753 56.6831 42.1985 52.222 35.944 54.3456C29.6923 56.4739 27.6835 64.7555 46.1988 69.6012C46.1988 69.6012 60.2608 74.1946 89.4687 69.5204L96.8129 61.1332L96.8156 61.1379Z" fill="#F0AFCF"/>
<path d="M76.5432 66.8174L68.2991 38.2938L66.4038 38.7705L65.8193 36.1142L98.8475 27.8478L99.4319 30.5041L97.5416 30.9778L102.053 60.4277L76.5432 66.8174Z" fill="white"/>
<path d="M66.8461 36.7187L98.1805 28.8756L98.4061 29.8987L98.1566 29.9608L96.566 30.356L96.8073 31.912L101.08 59.8105L77.1632 65.7975L69.3519 38.7824L68.914 37.2768L67.3235 37.672L67.074 37.7342L66.8484 36.7111M64.7935 35.5088L65.7368 39.7982L67.6801 39.3128L75.9292 67.8334L103.032 61.0532L98.5181 31.5987L100.461 31.1133L99.5182 26.8238L64.7963 35.5135L64.7935 35.5088Z" fill="#010101"/>
<path d="M86.2448 49.7394C94.7589 47.6094 100.195 39.2275 98.3886 31.0182C98.3086 30.661 98.2135 30.3125 98.1136 29.9669L96.3442 30.4086C96.4491 30.7514 96.5441 31.0999 96.6242 31.457C98.22 38.7163 93.3941 46.1537 85.8704 48.0333C78.3417 49.9157 70.9181 45.5422 69.325 38.2876C69.2449 37.9305 69.1902 37.5714 69.1382 37.2169L67.3688 37.6586C67.4208 38.0131 67.4832 38.3741 67.5583 38.7341C69.3642 46.9435 77.7306 51.8694 86.2448 49.7394Z" fill="#010101"/>
<path d="M80.0807 39.2692C80.0807 39.2692 81.7099 40.5849 83.8917 38.3168" stroke="#010101" stroke-width="1.85162" stroke-miterlimit="10" stroke-linecap="round"/>
<path d="M88.4049 36.7067C88.4049 36.7067 90.034 38.0224 92.2159 35.7543" stroke="#010101" stroke-width="1.85162" stroke-miterlimit="10" stroke-linecap="round"/>
<path d="M82.9208 70.4589C82.9208 70.4589 94.2927 64.1391 102.473 57.4307C112.109 49.5292 116.648 44.974 122.571 48.0018C128.494 51.0295 117.607 64.1217 112.388 65.6352C109.222 66.5554 105.877 65.2344 97.6705 67.5523C92.3337 69.0579 86.9654 70.2791 82.9208 70.4589Z" fill="#AF8DC0"/>
<path d="M114.32 69.5064C115.319 65.8621 113.919 62.4229 111.191 61.8248C108.464 61.2267 105.443 63.6962 104.444 67.3406C103.445 70.9849 104.846 74.4241 107.573 75.0222C110.3 75.6203 113.321 73.1508 114.32 69.5064Z" fill="white" stroke="black" stroke-width="1.23441" stroke-miterlimit="10"/>
<path d="M108.12 66.3641L103.137 67.1612C102.193 67.3121 101.52 68.1749 101.633 69.0882L101.633 69.0937C101.746 70.0071 102.602 70.6252 103.545 70.4743L108.528 69.6771C109.472 69.5262 110.145 68.6634 110.032 67.7501L110.032 67.7446C109.919 66.8312 109.063 66.2131 108.12 66.3641Z" fill="#F79678"/>
<path d="M103.197 71.2845C104.197 67.6401 102.796 64.2009 100.069 63.6028C97.3415 63.0047 94.3206 65.4742 93.3213 69.1186C92.322 72.7629 93.7227 76.2021 96.4499 76.8002C99.1772 77.3983 102.198 74.9288 103.197 71.2845Z" fill="white" stroke="black" stroke-width="1.23441" stroke-miterlimit="10"/>
<path d="M98.9244 67.2758C98.9244 67.2758 102.306 69.4891 98.4983 73.6541" stroke="black" stroke-width="1.23441" stroke-miterlimit="10" stroke-linecap="round"/>
<path d="M29.909 74.4752L11.8125 70.125" stroke="black" stroke-width="1.23441" stroke-miterlimit="10" stroke-linecap="round"/>
<path d="M26.6668 61.536L0.755249 55.3072" stroke="black" stroke-width="1.23441" stroke-miterlimit="10" stroke-linecap="round"/>
<path d="M51.8973 49.2129L25.9857 42.9841" stroke="black" stroke-width="1.23441" stroke-miterlimit="10" stroke-linecap="round"/>
</g>
<defs>
<clipPath id="clip0_4453_742">
<rect width="110.252" height="72.6308" fill="white" transform="translate(0 55.1259) rotate(-30)"/>
</clipPath>
</defs>
</svg>
